<svg xmlns="http://www.w3.org/2000/svg" version="1.1" xmlns:xlink="http://www.w3.org/1999/xlink" width="512" height="512" x="0" y="0" viewBox="0 0 512 512" style="enable-background:new 0 0 512 512" xml:space="preserve" class=""><g><path d="M436 0H76C51.187 0 31 20.187 31 45v422c0 24.813 20.187 45 45 45h360c24.813 0 45-20.187 45-45V45c0-24.813-20.187-45-45-45zM61 467V45c0-8.271 6.729-15 15-15h45v452H76c-8.271 0-15-6.729-15-15zm390 0c0 8.271-6.729 15-15 15H151V30h285c8.271 0 15 6.729 15 15z" fill="#d60707" opacity="1" data-original="#000000"></path><path d="M381.459 200.394c-11.697-11.697-30.729-11.697-42.426 0-5.848 5.848-15.362 5.849-21.214 0l-21.213-21.213c-5.849-5.849-5.849-15.365 0-21.214 11.697-11.696 11.697-30.729 0-42.426l-31.82-31.82c-11.695-11.695-30.728-11.697-42.425-.001l-.001.001-22.942 22.942c-9.771 9.771-14.477 23.185-12.911 36.803 9.381 81.632 85.448 157.652 167.026 167.027 13.879 1.59 27.215-3.323 36.804-12.911l22.943-22.943c11.694-11.696 11.694-30.729-.001-42.426zm-12.335 75.975c-3.259 3.26-7.695 4.839-12.165 4.319-67.202-7.722-132.926-73.445-140.647-140.647-.515-4.472 1.061-8.905 4.319-12.165l22.942-22.942 31.82 31.82c-17.546 17.546-17.546 46.094 0 63.64l21.213 21.213c17.544 17.546 46.094 17.546 63.64 0l31.82 31.82zM406 361H196c-8.284 0-15 6.716-15 15v60c0 8.284 6.716 15 15 15h210c8.284 0 15-6.716 15-15v-60c0-8.284-6.716-15-15-15zm-15 60H211v-30h180z" fill="#d60707" opacity="1" data-original="#000000"></path></g></svg>